<svg xmlns="http://www.w3.org/2000/svg" version="1.1" xmlns:xlink="http://www.w3.org/1999/xlink" xmlns:svgjs="http://svgjs.dev/svgjs" width="100%" height="100%" viewBox="0 0 1000 600"><rect width="1000" height="600" x="0" y="0" fill="#262223"/><g><rect width="333.3333333333333" height="333.3333333333333" rx="13.333333333333334" ry="13.333333333333334" y="248.03542984513658" fill="#ddc6b6" transform="matrix(0.5535547880107525,0,0,0.5535547880107524,0,70.43964998629896)" x="225.81329345703122"/><path d="M332.2885248646878 351.8169558037587L332.2885248646878 351.8169558037587Q322.6896184900885 351.8169558037587 322.6896184900885 368.3620793269283L322.6896184900885 368.3620793269283L322.6896184900885 445.5635399978505Q322.6896184900885 477.09499028250275 297.967648795964 486.5298127874507L297.967648795964 486.5298127874507Q289.5173295089236 489.7021009340419 278.82453066998255 489.7021009340419Q268.15907914265006 489.7021009340419 260.66591576190876 487.3775794473156Q253.17275238116747 485.0804052721978 247.97676317554397 481.224434335393L247.97676317554397 481.224434335393Q237.50274282947126 473.3484085921321 237.50274282947126 462.10866352102016L237.50274282947126 462.10866352102016Q237.50274282947126 453.63099692237125 241.44075570110172 448.68113352122464Q245.37876857273218 443.731270120078 252.29763840969403 443.731270120078L252.29763840969403 443.731270120078Q258.06792115909707 443.731270120078 259.9822329716951 446.4386539693239L259.9822329716951 446.4386539693239Q258.83364588413633 451.06034963116804 258.83364588413633 455.38122486531813L258.83364588413633 455.38122486531813Q258.83364588413633 475.0712892234704 279.2347403441107 475.0712892234704L279.2347403441107 475.0712892234704Q289.2165090812297 475.0712892234704 294.60392946811294 469.2736591624589Q299.9913498549963 463.4486817898389 299.9913498549963 452.7832302625064L299.9913498549963 452.7832302625064L299.9913498549963 363.0840481864792Q299.79991867373644 357.9701009156813 298.07703804239816 356.3566095307772L298.07703804239816 356.3566095307772Q295.3696541931522 353.95004610922524 291.73246174921576 353.2116686957945Q288.0679219936708 352.5006385939723 285.60666394890166 351.9263450501929Q283.1727532157412 351.35205150641343 281.42252527279436 350.47693753494L281.42252527279436 350.47693753494Q278.16819519137755 348.7540569036017 278.16819519137755 345.00747521323103L278.16819519137755 345.00747521323103Q278.16819519137755 341.4523247041202 279.69964464145596 339.7020967611733L279.69964464145596 339.7020967611733Q281.91477688174814 340.4951687978211 289.2165090812297 340.4951687978211L289.2165090812297 340.4951687978211L330.8391173494349 340.4951687978211Q341.8053893044614 340.4951687978211 341.8053893044614 347.87894293212827L341.8053893044614 347.87894293212827Q341.8053893044614 351.0512310787194 340.2739398543829 352.80145902166635L340.2739398543829 352.80145902166635Q336.80083128009767 351.8169558037587 332.2885248646878 351.8169558037587ZM406.7005597515383 487.86983105626945L364.31222675829383 487.86983105626945Q351.43164299066916 487.86983105626945 351.43164299066916 480.7595300380478L351.43164299066916 480.7595300380478Q351.43164299066916 477.5872418914566 352.9630924407477 475.6729300788584L352.9630924407477 475.6729300788584Q355.75251822481926 476.4386548038977 358.62398594371655 476.4386548038977Q361.52280097422226 476.4386548038977 363.54650203325457 476.2472236226378Q365.5702030922869 476.05579244137806 367.2930837236253 474.60638492612514L367.2930837236253 474.60638492612514Q370.848234232736 471.3247075330998 371.7233482042095 460.08496246198786L371.7233482042095 460.08496246198786L381.62307500650275 357.9701009156813Q381.8145061877625 355.5635374941294 379.98223630999007 354.22351922531067Q378.1499664322175 352.88350095649196 375.4699298945801 352.3092074127125Q372.76254604533415 351.73491386893306 370.7935396095189 351.35205150641343Q368.8245331737037 350.9691891438938 367.3751256584509 350.20346441885454L367.3751256584509 350.20346441885454Q364.39426869311944 348.7540569036017 364.39426869311944 345.253601017708Q364.39426869311944 341.7257978202057 365.76163427354675 340.0029171888673L365.76163427354675 340.0029171888673Q367.56655683971064 340.4951687978211 369.01596435496356 340.4951687978211L369.01596435496356 340.4951687978211L397.48451573945874 340.4951687978211Q411.8145070223362 340.4951687978211 415.068837103753 347.49608056960864L415.068837103753 347.49608056960864L450.83912068772975 431.4249798962328L487.75799135926536 347.03117627226334Q489.5902612370379 342.7923429729389 493.22745368097435 341.64375588538Q496.89199343651933 340.4951687978211 502.5528869394882 340.4951687978211L502.5528869394882 340.4951687978211L521.2037534565158 340.4951687978211Q534.1937264705746 340.4951687978211 534.1937264705746 347.3046493883488L534.1937264705746 347.3046493883488Q534.1937264705746 350.9691891438938 532.7443189553217 352.6100278404065L532.7443189553217 352.6100278404065Q528.9156953301255 351.54348268767325 526.4544372853563 351.54348268767325Q523.9931792405873 351.54348268767325 522.0788674279892 351.9263450501929Q520.1645556153911 352.3092074127125 518.9886212162236 353.37575256544574L518.9886212162236 353.37575256544574Q516.6094051062802 355.3721063128695 517.1836986500597 361.44320948996653L517.1836986500597 361.44320948996653L527.5483297496982 466.6209699364301Q528.2320125399118 473.3484085921321 534.768020014354 475.0712892234704L534.768020014354 475.0712892234704Q536.6002898921265 475.5635408324242 538.6239909511588 476.2472236226378L538.6239909511588 476.2472236226378L542.3705726415295 477.4778526450224Q545.9257231506404 478.6264397325812 546.6914478756795 480.51340423357084Q547.4571726007189 482.40036873456046 547.4571726007189 484.12324936589874L547.4571726007189 484.12324936589874Q547.4571726007189 486.5298127874507 546.007765085466 488.3620826652232L546.007765085466 488.3620826652232Q543.8199801567823 487.86983105626945 541.495458670056 487.86983105626945L541.495458670056 487.86983105626945L497.6577181615586 487.86983105626945Q485.92572148149293 487.86983105626945 485.92572148149293 480.8415719728734L485.92572148149293 480.8415719728734Q485.92572148149293 479.6929848853145 486.60940427170647 477.9154096307591Q487.2657397503116 476.13783437620367 487.6486021128312 475.6729300788584L487.6486021128312 475.6729300788584Q490.54741714333693 476.4386548038977 493.00867518810594 476.4386548038977Q495.4425859212665 476.4386548038977 498.0952751472953 476.05579244137806Q500.7479643733242 475.6729300788584 502.5528869394882 474.2235225636055L502.5528869394882 474.2235225636055Q506.49089981111865 470.94184517058017 505.91660626733926 461.80784309332614L505.91660626733926 461.80784309332614L499.681419220591 379.32835128195484L498.8063052491175 363.27547936773897L454.58570237810045 461.2335495495467Q453.3277260441074 461.99927427458596 450.7297314412956 461.99927427458596Q448.1317368384838 461.99927427458596 445.3970056776293 460.13965708520493Q442.6622745167749 458.2526925842153 440.44714227648274 455.46326680014374L440.44714227648274 455.46326680014374Q436.8919917673719 450.95096038473383 433.6376616859551 443.9227013013378L433.6376616859551 443.9227013013378L397.8673781019784 360.10319122114777L390.07339429354306 464.7887000586575Q389.69053193102343 470.28550969197505 391.6048437436216 472.1998215045732L391.6048437436216 472.1998215045732Q394.0114071651735 474.60638492612514 397.949420036804 475.6729300788584Q401.88743290843445 476.7121279199831 404.1025651487266 477.259074152154Q406.3176973890187 477.77867307271634 407.9585360855315 478.6264397325812L407.9585360855315 478.6264397325812Q411.5136865946423 480.37666767552815 411.5136865946423 484.3967224819842L411.5136865946423 484.3967224819842Q411.5136865946423 486.42042354101653 409.9822371445638 488.3620826652232L409.9822371445638 488.3620826652232Q408.23200920161685 487.86983105626945 406.7005597515383 487.86983105626945L406.7005597515383 487.86983105626945Z " fill="#262223" transform="matrix(0.5535547880107525,0,0,0.5535547880107524,0,70.43964998629896)"/><path d="M725.1399704479531 369.3700281443765L725.1399704479531 369.3700281443765Q716.769034741318 369.3700281443765 716.769034741318 383.7985640489754L716.769034741318 383.7985640489754L716.769034741318 451.1237819972112Q716.769034741318 478.6214710848187 695.2097017532893 486.8493138733916L695.2097017532893 486.8493138733916Q687.8404164730892 489.61577695592626 678.5155279793731 489.61577695592626Q669.2144883053343 489.61577695592626 662.6799117138299 487.58862728337937Q656.1453351223257 485.5853264305094 651.6140593836914 482.22264285604916L651.6140593836914 482.22264285604916Q642.4799614473915 475.35418278906656 642.4799614473915 465.5523179018101L642.4799614473915 465.5523179018101Q642.4799614473915 458.159183801933 645.9141914808828 453.84254744039185Q649.3484215143741 449.5259110788507 655.382172892661 449.5259110788507L655.382172892661 449.5259110788507Q660.4142738445128 449.5259110788507 662.0836912219044 451.886944226876L662.0836912219044 451.886944226876Q661.0820407954694 455.91739475229286 661.0820407954694 459.68550826126244L661.0820407954694 459.68550826126244Q661.0820407954694 476.856658428719 678.8732602745285 476.856658428719L678.8732602745285 476.856658428719Q687.578079456642 476.856658428719 692.2762969330155 471.8007086571901Q696.9745144093889 466.72091006598424 696.9745144093889 457.41987039194527L696.9745144093889 457.41987039194527L696.9745144093889 379.19574185130995Q696.8075726716498 374.7360125717066 695.3050970319974 373.3289322107623L695.3050970319974 373.3289322107623Q692.944063883972 371.2302360791843 689.772170866928 370.5863179479046Q686.5764290302069 369.96624863630205 684.4300352592749 369.46542342308453Q682.3074903080199 368.96459820986706 680.7811658486904 368.20143598020235L680.7811658486904 368.20143598020235Q677.9431563071247 366.6989603405499 677.9431563071247 363.4316720447978L677.9431563071247 363.4316720447978Q677.9431563071247 360.33132548678475 679.278690209038 358.8050010274553L679.278690209038 358.8050010274553Q681.2104446028768 359.49661679808895 687.578079456642 359.49661679808895L687.578079456642 359.49661679808895L723.8759830050709 359.49661679808895Q733.4393596955571 359.49661679808895 733.4393596955571 365.9357981108852L733.4393596955571 365.9357981108852Q733.4393596955571 368.7022611934198 732.1038257936438 370.2285856527493L732.1038257936438 370.2285856527493Q729.0750256946619 369.3700281443765 725.1399704479531 369.3700281443765ZM805.0573651856571 477.3813324616135L805.0573651856571 477.3813324616135Q792.7990718716673 489.61577695592626 775.4609799664717 489.61577695592626L775.4609799664717 489.61577695592626Q762.0340944883077 489.61577695592626 753.997042257151 481.8887593805709L753.997042257151 481.8887593805709Q745.8645947472861 474.0901953461843 745.8645947472861 461.6888091141324L745.8645947472861 461.6888091141324Q745.8645947472861 446.25862278309853 759.6015148812513 438.5554540274201L759.6015148812513 438.5554540274201Q772.0029011133033 431.4962034030213 794.563884527767 431.4962034030213L794.563884527767 431.4962034030213L805.0573651856571 431.4962034030213Q805.1289116446882 428.3243103859773 805.1289116446882 425.29551028699535L805.1289116446882 425.29551028699535L805.1289116446882 419.0232707119383Q805.1289116446882 407.7904766440605 801.8616233489361 403.16380562671804L801.8616233489361 403.16380562671804Q798.1650562989975 397.96476293712703 789.293295379145 397.96476293712703L789.293295379145 397.96476293712703Q768.9025545552903 397.96476293712703 768.3301828830417 412.5602405794651L768.3301828830417 412.5602405794651Q768.2347876043336 414.82587844878225 768.4017293420728 416.3283540884347L768.4017293420728 416.3283540884347Q766.7323119646812 417.663887990348 762.7495590786183 417.663887990348Q758.7668061925555 417.663887990348 756.9542958971018 416.75763284262115Q755.1656344213251 415.82752887521724 753.8062516997347 414.22965795685667L753.8062516997347 414.22965795685667Q750.968242158169 410.96236966110456 750.968242158169 405.88257106989863Q750.968242158169 400.8266212983698 753.9493446177969 397.0108101500461Q756.9304470774248 393.19499900172246 762.0340944883077 390.7624193946661L762.0340944883077 390.7624193946661Q772.0029011133033 385.8018649018453 785.5967283292064 385.8018649018453Q799.1667067254324 385.8018649018453 806.0113179727381 388.44908388599487Q812.8320804003666 391.0963028701444 816.8625309257835 395.4606368710396L816.8625309257835 395.4606368710396Q823.9933280092133 403.16380562671804 823.9933280092133 416.16141235069557L823.9933280092133 416.16141235069557L823.1586193205176 456.41821996551033Q823.1586193205176 467.3886770169409 824.2079673863066 470.32208183721474Q825.2573154520956 473.2554866574886 826.712093452394 474.2571370839235Q828.1907202723694 475.2826363300355 830.3132652236245 475.2826363300355Q832.4596589945564 475.2826363300355 833.7951928964698 474.59102055940184L833.7951928964698 474.59102055940184L836.156226044495 473.51782367393577Q837.3248182086692 473.0885449197494 838.2072245367191 474.47177646101676Q839.0896308647689 475.855008002284 839.0896308647689 476.90435606807307Q839.0896308647689 477.95370413386206 838.2072245367191 479.6231215112537Q837.3248182086692 481.31638770832234 834.9399362409669 483.2004444628071Q832.5550542732647 485.0845012172919 829.5262541742827 486.51543039791335L829.5262541742827 486.51543039791335Q812.8320804003666 494.3855408913309 806.7983290220799 482.81886334797474L806.7983290220799 482.81886334797474Q805.5581903988746 480.55322547865757 805.0573651856571 477.3813324616135ZM804.7950281692099 466.3870265905059L804.7950281692099 466.3870265905059Q804.7950281692099 454.3195238339323 804.961969906949 442.39511399542084L804.961969906949 442.39511399542084Q787.5284827230453 443.0867297660545 781.2800919676653 444.636903045061Q775.0317012122852 446.1870763240675 772.2652381297505 447.5941566850118Q769.4987750472159 449.02508586563323 767.9009041288554 450.9568402594721L767.9009041288554 450.9568402594721Q765.3013827840598 454.15258209619316 765.3013827840598 460.56791458931235Q765.3013827840598 466.9832470824315 769.8326585226941 470.7990582307552Q774.3639342613286 474.59102055940184 782.8302652466717 474.59102055940184L782.8302652466717 474.59102055940184Q794.8262215442143 474.59102055940184 804.7950281692099 466.3870265905059ZM894.0850090399839 488.4471847917522L894.0850090399839 488.4471847917522Q892.4155916625922 488.01790603756575 888.7190246126537 488.01790603756575L888.7190246126537 488.01790603756575L861.984497754711 488.01790603756575Q853.9235967038771 488.01790603756575 851.65795883456 485.156047676323L851.65795883456 485.156047676323Q850.7517036868331 484.082850790857 850.7517036868331 482.6519216102356L850.7517036868331 482.6519216102356Q850.7517036868331 479.1222962980362 852.0872375887465 477.4528789206446L852.0872375887465 477.4528789206446Q854.0905384416163 478.1206458716012 856.6900597864118 478.1206458716012Q859.2895811312073 478.1206458716012 860.5535685740896 476.0219497400232Q861.8175560169718 473.9232536084452 861.7221607382637 468.2233857056367L861.7221607382637 468.2233857056367L861.7221607382637 364.3379271925246Q861.7221607382637 358.56651283068504 860.5535685740896 356.89709545329345L860.5535685740896 356.89709545329345Q858.7887559179899 354.2021788297899 854.3528754580636 354.2021788297899L854.3528754580636 354.2021788297899L852.659609260995 354.2021788297899Q851.9202958510073 354.2021788297899 850.9424942442494 354.4168182068831Q849.9885414571685 354.63145758397627 849.3207745062118 354.2498764691439Q848.6530075552552 353.86829535431156 848.1521823420377 353.2005284033549L848.1521823420377 353.2005284033549Q846.387369685938 350.6010070585594 852.1587840477774 346.16512659863315L852.1587840477774 346.16512659863315Q860.6251150331207 339.7020964661599 869.4491783136192 339.7020964661599L869.4491783136192 339.7020964661599Q878.9887061844283 339.7020964661599 880.1811471682795 350.0047865666338L880.1811471682795 350.0047865666338Q880.5150306437578 353.10513312464684 880.5150306437578 356.53936315813814L880.5150306437578 356.53936315813814L880.5150306437578 402.25755047899116Q893.1549050725799 391.5971280833619 907.5834409771788 387.3997358202059L907.5834409771788 387.3997358202059Q912.877878945478 385.8018649018453 918.2677121924852 385.8018649018453Q923.6813942591695 385.8018649018453 928.5942511126361 387.2327940824667Q933.4832591464259 388.66372326308806 937.0128844586253 391.85946509980914L937.0128844586253 391.85946509980914Q944.7399020339807 398.72792516679175 944.7399020339807 412.7987287762353L944.7399020339807 412.7987287762353L944.7399020339807 469.0580943943325Q944.7399020339807 476.0219497400232 949.4142706906772 477.61982065838373L949.4142706906772 477.61982065838373Q950.7736534122674 478.1206458716012 952.6100125273982 478.4545293470796Q954.446371642529 478.78841282255786 955.9249984625045 479.2653892160983Q957.3797764628029 479.71851678996177 958.2383339711757 480.31473728188735L958.2383339711757 480.31473728188735Q959.6454143321201 481.3879341673534 959.6454143321201 483.82051377440973L959.6454143321201 483.82051377440973Q959.6454143321201 486.8493138733916 958.4052757089149 488.4471847917522L958.4052757089149 488.4471847917522Q956.6404630528151 488.01790603756575 953.0392912815847 488.01790603756575L953.0392912815847 488.01790603756575L926.2809156039649 488.01790603756575Q918.243863372808 488.01790603756575 915.978225503491 485.156047676323L915.978225503491 485.156047676323Q915.048121536087 484.082850790857 915.048121536087 482.6519216102356L915.048121536087 482.6519216102356Q915.048121536087 479.05074983900516 916.3121089789693 477.4528789206446L916.3121089789693 477.4528789206446Q918.4108051105474 478.1206458716012 920.8433847176037 478.1206458716012Q923.27596432466 478.1206458716012 924.5638005872192 476.35583321550155Q925.8754856694555 474.59102055940184 926.0424274071946 469.9166519027053L926.0424274071946 469.9166519027053L926.0424274071946 418.760933695491Q926.0424274071946 404.4993395286313 917.5760964218515 402.8299221512397L917.5760964218515 402.8299221512397Q914.976575077056 402.32909693802225 911.0653686500242 402.32909693802225Q907.1780110426695 402.32909693802225 902.503642385973 403.4976891021964Q897.8531225489535 404.6662812663705 893.7511255645055 406.52648920117826L893.7511255645055 406.52648920117826Q885.6186780546408 410.1992074314398 880.5150306437578 415.3267036619997L880.5150306437578 415.3267036619997L880.5150306437578 469.0580943943325Q880.5150306437578 476.0219497400232 885.1893993004543 477.61982065838373L885.1893993004543 477.61982065838373Q886.5487820220446 478.1206458716012 888.3851411371754 478.4545293470796Q890.2215002523061 478.78841282255786 891.7001270722816 479.2653892160983Q893.1549050725799 479.71851678996177 894.0134625809528 480.31473728188735L894.0134625809528 480.31473728188735Q895.4205429418972 481.3879341673534 895.4205429418972 483.82051377440973L895.4205429418972 483.82051377440973Q895.4205429418972 486.7539185946835 894.0850090399839 488.4471847917522ZM991.7697744370699 370.2285856527493L991.7697744370699 370.2285856527493Q988.9079160758273 370.2285856527493 986.5230341081249 369.34617932469945Q984.1381521404226 368.4637729966496 982.373339484323 366.77050679958097L982.373339484323 366.77050679958097Q978.6767724343844 363.2647303070586 978.6767724343844 357.30252538780286L978.6767724343844 357.30252538780286Q978.6767724343844 351.6026574849943 983.0411064352796 347.66760223828555L983.0411064352796 347.66760223828555Q987.2384986984356 343.7325469915768 993.1053083389833 343.7325469915768Q998.9721179795309 343.7325469915768 1002.5017432917303 347.23832348409917Q1006.0075197842526 350.7679487962986 1006.0075197842526 356.80170017458533L1006.0075197842526 356.80170017458533Q1006.0075197842526 362.50156807739387 1001.8339763407737 366.43662332410264L1001.8339763407737 366.43662332410264Q997.7081305366487 370.2285856527493 991.7697744370699 370.2285856527493ZM1013.4006538841298 488.01790603756575L986.64227820651 488.01790603756575Q973.7400667612407 488.01790603756575 973.7400667612407 482.1510963970181L973.7400667612407 482.1510963970181Q973.7400667612407 479.1222962980362 975.075600663154 477.4528789206446L975.075600663154 477.4528789206446Q977.1027503357009 478.1206458716012 978.7721677130925 478.1206458716012L978.7721677130925 478.1206458716012Q986.570731747479 478.1206458716012 986.4037900097399 468.2233857056367L986.4037900097399 468.2233857056367L986.4037900097399 412.0594153662476Q986.4037900097399 406.19260572569993 984.7582214520252 403.8792702170287Q983.1365017139877 401.5659347083575 978.9391094508317 401.5659347083575L978.9391094508317 401.5659347083575Q975.8387628928186 401.5659347083575 973.3107880070542 402.32909693802225L973.3107880070542 402.32909693802225Q971.8083123674018 402.4960386757614 971.1405454164451 399.991912609674L971.1405454164451 399.991912609674Q970.5443249245195 397.7262747403568 971.8083123674018 396.00915972361116Q973.072299810284 394.2920447068655 975.7195187944335 392.38413913270364Q978.3428889589061 390.50008237821885 981.538630795627 389.0930020172745L981.538630795627 389.0930020172745Q988.4070908626098 385.8018649018453 993.0337618799523 385.8018649018453Q997.6365840776176 385.8018649018453 999.8545243075807 387.1612476234356Q1002.0724645375439 388.4967815253489 1003.2410567017181 390.7624193946661L1003.2410567017181 390.7624193946661Q1005.1012646365258 394.45898644460465 1005.1012646365258 402.6629804135005L1005.1012646365258 402.6629804135005L1005.1012646365258 469.6543148862581Q1005.3397528332961 476.28428675647046 1009.8710285719304 477.71521593709184L1009.8710285719304 477.71521593709184Q1011.1350160148127 478.1206458716012 1012.9713751299433 478.4545293470796Q1014.8315830647513 478.78841282255786 1016.2863610650496 479.2653892160983Q1017.764987885025 479.71851678996177 1018.5996965737208 480.31473728188735L1018.5996965737208 480.31473728188735Q1020.0306257543422 481.3879341673534 1020.0306257543422 483.82051377440973L1020.0306257543422 483.82051377440973Q1020.0306257543422 486.8493138733916 1018.76663831146 488.4471847917522L1018.76663831146 488.4471847917522Q1017.0018256553602 488.01790603756575 1013.4006538841298 488.01790603756575L1013.4006538841298 488.01790603756575ZM1100.925822098804 477.54827419935265L1100.925822098804 477.54827419935265Q1087.9282153748268 489.68732341495735 1072.3310873060536 489.68732341495735L1072.3310873060536 489.68732341495735Q1055.159937138597 489.68732341495735 1044.3325730052288 477.95370413386206L1044.3325730052288 477.95370413386206Q1032.5989537241335 465.05149268859265 1032.5989537241335 442.32356753638976L1032.5989537241335 442.32356753638976Q1032.5989537241335 416.75763284262115 1048.863848743863 400.7312260196617L1048.863848743863 400.7312260196617Q1064.0316980584498 385.8018649018453 1084.7563223577827 385.8018649018453L1084.7563223577827 385.8018649018453Q1093.0557116053865 385.8018649018453 1100.687333902034 388.56832798437995L1100.687333902034 388.56832798437995L1100.687333902034 364.3379271925246Q1100.687333902034 358.471117551977 1099.4948929181828 356.89709545329345L1099.4948929181828 356.89709545329345Q1097.586987344021 354.2021788297899 1093.2226533431258 354.2021788297899L1093.2226533431258 354.2021788297899Q1091.3624454083179 354.2021788297899 1089.5737839325411 354.5837599446222Q1087.7612736370875 354.9653410594546 1087.0458090467769 354.5837599446222Q1086.3303444564663 354.2021788297899 1085.924914521957 353.5344118788332L1085.924914521957 353.5344118788332Q1084.2554971445652 350.7679487962986 1090.1223067851129 346.4990100741114L1090.1223067851129 346.4990100741114Q1099.3279511804435 339.7020964661599 1108.3189561986815 339.7020964661599L1108.3189561986815 339.7020964661599Q1117.7869376104595 339.7020964661599 1119.1224715123726 350.0047865666338L1119.1224715123726 350.0047865666338Q1119.4563549878508 353.10513312464684 1119.4563549878508 356.53936315813814L1119.4563549878508 356.53936315813814L1119.4563549878508 453.8902450797459Q1119.4563549878508 466.81630534469235 1120.4580054142862 469.9881983617364Q1121.483504660398 473.1839401984575 1122.8667362016654 474.1378929855384Q1124.2499677429328 475.11569459229634 1126.3248150548338 475.11569459229634Q1128.4235111864118 475.11569459229634 1129.7828939080018 474.4240788216627L1129.7828939080018 474.4240788216627L1132.2870199740896 473.35088193619663Q1133.3840656792327 473.0885449197494 1134.2187743679283 474.3525323626316L1134.2187743679283 474.3525323626316Q1135.983587024028 476.95205370742707 1134.7195995811458 479.05074983900516Q1133.4556121382634 481.14944597058314 1130.951486072176 483.08120036442205Q1128.4235111864118 484.98910593858386 1125.3231646283984 486.42003511920524L1125.3231646283984 486.42003511920524Q1111.7531862321725 492.5491817762001 1105.0278190832519 486.6823721356525L1105.0278190832519 486.6823721356525Q1101.7605307875 483.82051377440973 1100.925822098804 477.54827419935265ZM1100.687333902034 465.05149268859265L1100.687333902034 405.59638523377436Q1092.459491113461 399.3002968390403 1081.5605805210616 399.3002968390403L1081.5605805210616 399.3002968390403Q1068.4914273380527 399.3002968390403 1060.3589798281882 408.9590688082346L1060.3589798281882 408.9590688082346Q1051.6303118263977 419.26175890870854 1051.6303118263977 437.0291295680907L1051.6303118263977 437.0291295680907Q1051.6303118263977 465.28998088536287 1067.7282651083883 471.91995275557525L1067.7282651083883 471.91995275557525Q1072.76036606024 473.9232536084452 1077.5062811759676 473.9232536084452Q1082.228347472018 473.9232536084452 1085.4240893087394 473.1839401984575Q1088.595982325783 472.4207779687927 1091.3624454083179 471.15679052591054L1091.3624454083179 471.15679052591054Q1096.8953715733874 468.65266445982314 1100.687333902034 465.05149268859265L1100.687333902034 465.05149268859265ZM1192.7437778553426 488.01790603756575L1155.7542585362798 488.01790603756575Q1144.521464468402 488.01790603756575 1144.521464468402 481.8172129215398L1144.521464468402 481.8172129215398Q1144.521464468402 479.05074983900516 1145.8808471899924 477.3813324616135L1145.8808471899924 477.3813324616135Q1148.3134267970486 478.0490994125702 1150.8175528631364 478.0490994125702Q1153.3216789292237 478.0490994125702 1155.0864915853235 477.88215767483103Q1156.851304241423 477.71521593709184 1158.3537798810758 476.4512284942096L1158.3537798810758 476.4512284942096Q1161.4541264390887 473.58937013296685 1162.217288668753 463.7875052457104L1162.217288668753 463.7875052457104L1170.8505613918355 374.7360125717066Q1171.0175031295748 372.6373164401286 1169.4196322112143 371.4687242759545Q1167.8456101125307 370.3001321117804 1165.4845769645053 369.7993068985629Q1163.1473926361573 369.2984816853454 1161.4302776194113 368.96459820986706Q1159.7131626026658 368.6307147343888 1158.4491751597834 367.9629477834321L1158.4491751597834 367.9629477834321Q1155.849653814988 366.6989603405499 1155.849653814988 363.64631142189097Q1155.849653814988 360.569813683555 1157.0182459791622 359.06733804390257L1157.0182459791622 359.06733804390257Q1158.6161168975227 359.49661679808895 1159.880104340405 359.49661679808895L1159.880104340405 359.49661679808895L1184.6828768045089 359.49661679808895Q1197.179658315269 359.49661679808895 1200.0415166765115 365.60191463540684L1200.0415166765115 365.60191463540684L1231.2119239943809 438.79394222419035L1263.4078305583616 365.1964847008975Q1265.0057014767222 361.4999176509589 1268.2014433134432 360.49826722452394Q1271.3733363304873 359.49661679808895 1276.3338908233081 359.49661679808895L1276.3338908233081 359.49661679808895L1292.5987858430376 359.49661679808895Q1303.9269751896236 359.49661679808895 1303.9269751896236 365.4349728976677L1303.9269751896236 365.4349728976677Q1303.9269751896236 368.6307147343888 1302.6629877467412 370.0616439150101L1302.6629877467412 370.0616439150101Q1299.3003041722814 369.13153994760626 1297.153910401349 369.13153994760626Q1295.0313654500942 369.13153994760626 1293.3619480727025 369.46542342308453Q1291.6686818756339 369.7993068985629 1290.667031449199 370.72941086596677L1290.667031449199 370.72941086596677Q1288.568335317621 372.47037470238945 1289.0691605308384 377.76481267068857L1289.0691605308384 377.76481267068857L1298.1317120081071 469.48737314851894Q1298.7279325000327 475.35418278906656 1304.427800402841 476.856658428719L1304.427800402841 476.856658428719Q1306.0018225015247 477.28593718290546 1307.7666351576245 477.88215767483103L1307.7666351576245 477.88215767483103L1311.0339234533767 478.95535456029705Q1314.1342700113896 479.957004986732 1314.8258857820233 481.60257354444656Q1315.4936527329796 483.2481421021612 1315.4936527329796 484.75061774181364L1315.4936527329796 484.75061774181364Q1315.4936527329796 486.8493138733916 1314.2296652900977 488.4471847917522L1314.2296652900977 488.4471847917522Q1312.2979108962586 488.01790603756575 1310.2946100433887 488.01790603756575L1310.2946100433887 488.01790603756575L1272.064952101121 488.01790603756575Q1261.833808459678 488.01790603756575 1261.833808459678 481.8887593805709L1261.833808459678 481.8887593805709Q1261.833808459678 480.8871089541359 1262.4061801319267 479.3369356751294Q1263.0024006238523 477.7867623961229 1263.3362840993304 477.3813324616135L1263.3362840993304 477.3813324616135Q1265.8404101654182 478.0490994125702 1267.98680393635 478.0490994125702Q1270.1331977072819 478.0490994125702 1272.4226843962765 477.71521593709184Q1274.7360199049476 477.3813324616135 1276.3338908233081 476.1173450187313L1276.3338908233081 476.1173450187313Q1279.7681208567992 473.2554866574886 1279.2672956435817 465.28998088536287L1279.2672956435817 465.28998088536287L1273.8059159375434 393.3619407394616L1273.066602527556 379.3626835890491L1234.50306110981 464.7891556721454Q1233.406015404667 465.456922623102 1231.1403775353497 465.456922623102Q1228.8747396660324 465.456922623102 1226.48985769833 463.83520288506446Q1224.1049757306278 462.1896343273499 1222.173221336789 459.7570547202935L1222.173221336789 459.7570547202935Q1219.0728747787762 455.82199947358475 1216.2110164175333 449.69285281658983L1216.2110164175333 449.69285281658983L1185.0167602799875 376.59622050651444L1178.2436954917125 467.88950223015837Q1177.9098120162344 472.68311498524 1179.579229393626 474.3525323626316L1179.579229393626 474.3525323626316Q1181.677925525204 476.4512284942096 1185.1121555586951 477.3813324616135Q1188.5463855921867 478.2875876093404 1190.4781399860253 478.76456400288083Q1192.4098943798645 479.2176915767443 1193.8169747408087 479.957004986732L1193.8169747408087 479.957004986732Q1196.9411701184986 481.4833294460615 1196.9411701184986 484.98910593858386L1196.9411701184986 484.98910593858386Q1196.9411701184986 486.7539185946835 1195.5817873969086 488.4471847917522L1195.5817873969086 488.4471847917522Q1194.0793117572557 488.01790603756575 1192.7437778553426 488.01790603756575L1192.7437778553426 488.01790603756575ZM1386.5869841901854 477.3813324616135L1386.5869841901854 477.3813324616135Q1374.3525396958726 489.61577695592626 1356.9905989709996 489.61577695592626L1356.9905989709996 489.61577695592626Q1343.5637134928356 489.61577695592626 1335.5266612616792 481.8887593805709L1335.5266612616792 481.8887593805709Q1327.3942137518143 474.0901953461843 1327.3942137518143 461.6888091141324L1327.3942137518143 461.6888091141324Q1327.3942137518143 446.25862278309853 1341.1311338857795 438.5554540274201L1341.1311338857795 438.5554540274201Q1353.5563689375085 431.4962034030213 1376.093503532295 431.4962034030213L1376.093503532295 431.4962034030213L1386.5869841901854 431.4962034030213Q1386.6585306492166 428.3243103859773 1386.6585306492166 425.29551028699535L1386.6585306492166 425.29551028699535L1386.6585306492166 419.0232707119383Q1386.6585306492166 407.7904766440605 1383.3912423534643 403.16380562671804L1383.3912423534643 403.16380562671804Q1379.7185241232028 397.96476293712703 1370.8229143836734 397.96476293712703L1370.8229143836734 397.96476293712703Q1350.4560223794956 397.96476293712703 1349.85980188757 412.5602405794651L1349.85980188757 412.5602405794651Q1349.7882554285388 414.82587844878225 1349.9551971662781 416.3283540884347L1349.9551971662781 416.3283540884347Q1348.2619309692095 417.663887990348 1344.2791780831467 417.663887990348Q1340.2964251970839 417.663887990348 1338.5077637213071 416.75763284262115Q1336.6952534258535 415.82752887521724 1335.35971952394 414.22965795685667L1335.35971952394 414.22965795685667Q1332.497861162697 410.96236966110456 1332.497861162697 405.88257106989863Q1332.497861162697 400.8266212983698 1335.478963622325 397.0108101500461Q1338.4600660819528 393.19499900172246 1343.5637134928356 390.7624193946661L1343.5637134928356 390.7624193946661Q1353.5563689375085 385.8018649018453 1367.1263473337344 385.8018649018453Q1380.7201745496377 385.8018649018453 1387.540936977266 388.44908388599487Q1394.3855482245717 391.0963028701444 1398.4159987499888 395.4606368710396L1398.4159987499888 395.4606368710396Q1405.5229470137415 403.16380562671804 1405.5229470137415 416.16141235069557L1405.5229470137415 416.16141235069557L1404.6882383250454 456.41821996551033Q1404.6882383250454 467.3886770169409 1405.7375863908346 470.32208183721474Q1406.7869344566238 473.2554866574886 1408.2655612765993 474.2571370839235Q1409.7203392768974 475.2826363300355 1411.8667330478297 475.2826363300355Q1414.0131268187615 475.2826363300355 1415.348660720675 474.59102055940184L1415.348660720675 474.59102055940184L1417.685845049023 473.51782367393577Q1418.8544372131973 473.0885449197494 1419.7368435412473 474.47177646101676Q1420.6192498692972 475.855008002284 1420.6192498692972 476.90435606807307Q1420.6192498692972 477.95370413386206 1419.7368435412473 479.6231215112537Q1418.8544372131973 481.31638770832234 1416.469555245495 483.2004444628071Q1414.0846732777927 485.0845012172919 1411.055873178811 486.51543039791335L1411.055873178811 486.51543039791335Q1394.3855482245717 494.3855408913309 1388.3517968462847 482.81886334797474L1388.3517968462847 482.81886334797474Q1387.0878094034028 480.55322547865757 1386.5869841901854 477.3813324616135ZM1386.324647173738 466.3870265905059L1386.324647173738 466.3870265905059Q1386.324647173738 454.3195238339323 1386.4915889114773 442.39511399542084L1386.4915889114773 442.39511399542084Q1369.0581017275736 443.0867297660545 1362.8097109721934 444.636903045061Q1356.5613202168133 446.1870763240675 1353.7948571342786 447.5941566850118Q1351.0283940517438 449.02508586563323 1349.4305231333833 450.9568402594721L1349.4305231333833 450.9568402594721Q1346.8548506082652 454.15258209619316 1346.8548506082652 460.56791458931235Q1346.8548506082652 466.9832470824315 1351.3622775272224 470.7990582307552Q1355.893553265857 474.59102055940184 1364.3598842511997 474.59102055940184L1364.3598842511997 474.59102055940184Q1376.3558405487424 474.59102055940184 1386.324647173738 466.3870265905059ZM1478.2141493893077 488.4471847917522L1478.2141493893077 488.4471847917522Q1476.4731855528848 488.01790603756575 1472.8481649619775 488.01790603756575L1472.8481649619775 488.01790603756575L1444.444220726643 488.01790603756575Q1436.3833196758092 488.01790603756575 1434.1176818064923 485.156047676323L1434.1176818064923 485.156047676323Q1433.211426658765 484.082850790857 1433.211426658765 482.6519216102356L1433.211426658765 482.6519216102356Q1433.211426658765 479.1222962980362 1434.5469605606786 477.4528789206446L1434.5469605606786 477.4528789206446Q1436.5502614135485 478.1206458716012 1438.267376430294 478.1206458716012Q1439.9844914470395 478.1206458716012 1441.1769324308907 477.6675182977378Q1442.345524595065 477.19054190419735 1443.0132915460217 476.1173450187313L1443.0132915460217 476.1173450187313Q1444.1818837101955 474.0901953461843 1444.1818837101955 468.2233857056367L1444.1818837101955 468.2233857056367L1444.1818837101955 413.3949492681609Q1444.1818837101955 405.5248387747433 1441.248478889922 403.59308438090443L1441.248478889922 403.59308438090443Q1440.0798867257477 402.8299221512397 1438.148132331909 402.8299221512397L1438.148132331909 402.8299221512397Q1436.2163779380703 402.8299221512397 1435.09548341325 403.4261426431653Q1433.950740068753 403.99851431541384 1433.2352754784424 404.2608513318611Q1432.5198108881314 404.4993395286313 1432.018985674914 404.21315369250703Q1431.5181604616964 403.92696785638276 1431.017335248479 403.3307473644572L1431.017335248479 403.3307473644572Q1429.753347805597 401.8282717248047 1429.753347805597 400.4450401835374Q1429.753347805597 399.0618086422701 1430.8026958713858 397.41624008455545Q1431.852043937175 395.7945203465179 1434.2130770852 393.6481265755859Q1436.5502614135485 391.5255816243308 1439.5790615125302 389.7607689682311L1439.5790615125302 389.7607689682311Q1446.375975120482 385.8018649018453 1453.149039908756 385.8018649018453L1453.149039908756 385.8018649018453Q1460.8760574841117 385.8018649018453 1462.3069866647334 395.866066805549L1462.3069866647334 395.866066805549Q1462.7124165992423 398.79947162582283 1462.8078118779508 401.9952134625439L1462.8078118779508 401.9952134625439Q1475.0422563722636 391.16784932917545 1488.0398630962409 387.1612476234356L1488.0398630962409 387.1612476234356Q1492.4041970971361 385.8018649018453 1495.9576712290127 385.8018649018453Q1499.5111453608893 385.8018649018453 1501.8244808695604 386.82736414795727Q1504.1378163782315 387.82901457439226 1505.4733502801446 389.59382723049197L1505.4733502801446 389.59382723049197Q1508.0013251659093 393.02805726398327 1508.0013251659093 398.3940416913134Q1508.0013251659093 403.7600261186436 1507.476651133015 406.9319191356877Q1506.9758259197974 410.12766097240876 1506.2365125098095 412.5602405794651L1506.2365125098095 412.5602405794651Q1504.7101880504802 417.49694625260884 1503.3746541485666 418.85632897419913L1503.3746541485666 418.85632897419913Q1501.0374698202186 421.2889085812555 1497.1024145735096 421.2889085812555L1497.1024145735096 421.2889085812555Q1493.071964048093 421.2889085812555 1493.071964048093 418.9278754332302L1493.071964048093 418.9278754332302Q1493.071964048093 409.9607192346696 1492.308801818428 407.43274434890515L1492.308801818428 407.43274434890515Q1490.8778726378068 402.8299221512397 1486.9428173910978 402.8299221512397Q1483.0077621443893 402.8299221512397 1479.8120203076678 403.71232847928957Q1476.6401272906242 404.5947348073394 1473.611327191642 406.0972104469918L1473.611327191642 406.0972104469918Q1467.4821805346473 409.12601054597377 1462.8793583369816 413.8957744813784L1462.8793583369816 413.8957744813784L1462.8793583369816 469.6543148862581Q1463.141695353429 476.28428675647046 1468.674621518498 477.71521593709184L1468.674621518498 477.71521593709184Q1470.272492436859 478.1206458716012 1472.2757932897289 478.4545293470796Q1474.2790941425988 478.78841282255786 1475.7577209625742 479.2653892160983Q1477.2124989628728 479.71851678996177 1478.0472076515684 480.31473728188735L1478.0472076515684 480.31473728188735Q1479.4781368321896 481.3879341673534 1479.4781368321896 483.82051377440973L1479.4781368321896 483.82051377440973Q1479.4781368321896 486.8493138733916 1478.2141493893077 488.4471847917522ZM1548.9974461907118 403.92696785638276L1548.9020509120037 430.82843645206464L1548.8305044529725 452.8885946533109Q1548.8305044529725 466.72091006598424 1550.2375848139168 469.53507078787294Q1551.6685139945384 472.34923150976164 1553.6002683883771 472.8739055426562Q1555.5320227822158 473.4224283952277 1558.536974061521 473.4224283952277Q1561.5657741605028 473.4224283952277 1564.0460514069132 472.96930082136424Q1566.5024798336467 472.51617324750083 1568.6965712439328 471.75301101783606Q1570.866813834542 470.9898487881714 1572.8939635070888 470.08359364044446L1572.8939635070888 470.08359364044446L1576.9959604915366 468.31878098434476Q1578.4268896721583 467.8179557711273 1580.1678535085807 471.2521858046186L1580.1678535085807 471.2521858046186Q1580.692527541475 472.1822897720225 1580.692527541475 473.3985795755507Q1580.692527541475 474.59102055940184 1579.6670282953633 476.5227749532407Q1578.6653778689283 478.4545293470796 1575.7796706880085 480.93480659348995Q1572.8939635070888 483.4150838399003 1569.030454719411 485.3229894140622L1569.030454719411 485.3229894140622Q1560.635670193099 489.61577695592626 1553.9818495032096 489.61577695592626Q1547.3041799936432 489.61577695592626 1543.1306365501641 488.8526147262616Q1538.9332442870082 488.11330131627386 1535.999839466734 485.8476634469567L1535.999839466734 485.8476634469567Q1529.9660880884476 481.14944597058314 1529.9660880884476 468.65266445982314L1529.9660880884476 468.65266445982314L1529.9660880884476 402.6629804135005L1521.6666988408433 402.6629804135005Q1519.0671774960479 402.6629804135005 1517.8747365121967 400.9935630361089L1517.8747365121967 400.9935630361089Q1515.8714356593268 398.3940416913134 1515.8714356593268 396.6292290352137L1515.8714356593268 396.6292290352137Q1515.8714356593268 393.69582421493993 1517.3023648399485 393.3619407394616L1517.3023648399485 393.3619407394616Q1530.633855039404 391.0963028701444 1536.1667812044734 373.5674204075325L1536.1667812044734 373.5674204075325Q1537.764652122834 368.2968312589104 1538.6709072705607 361.0706388967725L1538.6709072705607 361.0706388967725Q1542.7013577959779 360.40287194581583 1544.7523562882016 360.40287194581583Q1546.8033547804257 360.40287194581583 1548.329679239755 362.50156807739387Q1549.8321548794074 364.6002642089719 1549.7844572400536 367.36672729150655Q1549.7367596006993 370.1331903740412 1549.6652131416686 372.56576998109756Q1549.5698178629605 374.99834958815387 1549.4982714039293 377.8363591297196L1549.4982714039293 377.8363591297196L1549.1643879284507 389.59382723049197L1578.1645526557108 389.59382723049197Q1579.261598360854 391.5255816243308 1579.261598360854 393.69582421493993L1579.261598360854 393.69582421493993L1579.261598360854 396.2953455597354Q1579.261598360854 399.8249708719348 1575.4934848518842 402.04291110189797Q1571.7015225232376 404.2608513318611 1567.146397964926 404.2608513318611Q1562.5674245869377 404.2608513318611 1560.6118213734221 404.14160723347595Q1558.6323693402292 403.99851431541384 1556.7960102250981 403.83157257767465L1556.7960102250981 403.83157257767465L1553.0994431751596 403.3307473644572Q1551.167688781321 403.16380562671804 1548.9974461907118 402.99686388897885L1548.9974461907118 402.99686388897885L1548.9974461907118 403.92696785638276Z " fill="#ddc6b6" transform="matrix(0.5535547880107525,0,0,0.5535547880107524,0,70.43964998629896)"/></g></svg>